<svg width="99" height="50" viewBox="0 0 99 50" fill="none" xmlns="http://www.w3.org/2000/svg">
<path d="M0.999998 29.5022C36.3822 61.4822 52.712 23.3784 43.5262 9.08942C34.3405 -5.19953 18.9458 1.60473 19.7113 12.8318C21.4974 39.0282 70.0633 62.2386 90.8163 38.4236" stroke="#F6882F" stroke-width="2" stroke-linecap="round" stroke-dasharray="5.88 5.88"/>
<path d="M97.1365 32.0326C96.9096 31.7997 96.5738 31.7129 96.2607 31.8042L88.959 33.9276C88.6286 34.0193 88.3945 34.2828 88.3314 34.6175C88.267 34.9582 88.492 35.3906 88.7861 35.5714L91.0692 36.9746C91.3034 37.1185 91.6056 37.0824 91.7994 36.887L94.4137 34.2563C94.5453 34.1193 94.7632 34.1193 94.8948 34.2563C95.0264 34.3888 95.0264 34.6034 94.8948 34.7404L92.2759 37.3714C92.0816 37.5664 92.0453 37.8701 92.1883 38.1057L93.5833 40.4117C93.7466 40.6857 94.028 40.8409 94.3366 40.8409C94.3729 40.8409 94.4137 40.8409 94.45 40.8363C94.804 40.7907 95.0854 40.5487 95.1897 40.2062L97.3544 32.9138C97.4497 32.6033 97.3634 32.2654 97.1365 32.0326Z" fill="#F6882F"/>
</svg>
