<svg width="167" height="83" viewBox="0 0 167 83" fill="none" xmlns="http://www.w3.org/2000/svg">
<path d="M0.999997 49.5514C61.2706 104.027 89.0871 39.12 73.44 14.7799C57.7928 -9.56013 31.5693 2.03037 32.8732 21.1547C35.9157 65.7782 118.644 105.315 153.995 64.7483" stroke="#F6882F" stroke-width="2" stroke-linecap="round" stroke-dasharray="5.88 5.88"/>
<path d="M164.76 53.8618C164.373 53.4651 163.801 53.3173 163.268 53.4729L150.83 57.0898C150.267 57.2461 149.869 57.6949 149.761 58.2651C149.651 58.8454 150.035 59.582 150.536 59.89L154.425 62.2802C154.824 62.5253 155.338 62.4638 155.668 62.1309L160.122 57.6498C160.346 57.4165 160.717 57.4165 160.941 57.6498C161.165 57.8754 161.165 58.241 160.941 58.4743L156.48 62.9562C156.149 63.2883 156.087 63.8056 156.331 64.2069L158.707 68.135C158.985 68.6017 159.465 68.8661 159.99 68.8661C160.052 68.8661 160.122 68.8661 160.184 68.8583C160.787 68.7806 161.266 68.3683 161.444 67.7849L165.131 55.363C165.293 54.8341 165.146 54.2585 164.76 53.8618Z" fill="#F6882F"/>
</svg>
