<svg width="20" height="20" viewBox="0 0 20 20" fill="none" xmlns="http://www.w3.org/2000/svg">
<path d="M10 3.46679C12.1333 3.46679 12.4 3.46679 13.2667 3.53346C15.4667 3.60012 16.4667 4.66679 16.5333 6.80012C16.6 7.66679 16.6 7.86679 16.6 10.0001C16.6 12.1335 16.6 12.4001 16.5333 13.2001C16.4667 15.3335 15.4 16.4001 13.2667 16.4668C12.4 16.5335 12.2 16.5335 10 16.5335C7.86667 16.5335 7.6 16.5335 6.8 16.4668C4.6 16.4001 3.6 15.3335 3.53333 13.2001C3.46667 12.3335 3.46667 12.1335 3.46667 10.0001C3.46667 7.86679 3.46667 7.60012 3.53333 6.80012C3.6 4.66679 4.66667 3.60012 6.8 3.53346C7.6 3.46679 7.86667 3.46679 10 3.46679ZM10 2.00012C7.8 2.00012 7.53333 2.00012 6.73333 2.06679C3.8 2.20012 2.2 3.80012 2.06667 6.73346C2 7.53346 2 7.80012 2 10.0001C2 12.2001 2 12.4668 2.06667 13.2668C2.2 16.2001 3.8 17.8001 6.73333 17.9335C7.53333 18.0001 7.8 18.0001 10 18.0001C12.2 18.0001 12.4667 18.0001 13.2667 17.9335C16.2 17.8001 17.8 16.2001 17.9333 13.2668C18 12.4668 18 12.2001 18 10.0001C18 7.80012 18 7.53346 17.9333 6.73346C17.8 3.80012 16.2 2.20012 13.2667 2.06679C12.4667 2.00012 12.2 2.00012 10 2.00012ZM10 5.86679C7.73333 5.86679 5.86667 7.73346 5.86667 10.0001C5.86667 12.2668 7.73333 14.1335 10 14.1335C12.2667 14.1335 14.1333 12.2668 14.1333 10.0001C14.1333 7.73346 12.2667 5.86679 10 5.86679ZM10 12.6668C8.53333 12.6668 7.33333 11.4668 7.33333 10.0001C7.33333 8.53346 8.53333 7.33346 10 7.33346C11.4667 7.33346 12.6667 8.53346 12.6667 10.0001C12.6667 11.4668 11.4667 12.6668 10 12.6668ZM14.2667 4.80012C13.7333 4.80012 13.3333 5.20012 13.3333 5.73346C13.3333 6.26679 13.7333 6.66679 14.2667 6.66679C14.8 6.66679 15.2 6.26679 15.2 5.73346C15.2 5.20012 14.8 4.80012 14.2667 4.80012Z" fill="#3E444D"/>
</svg>
