<svg width="24" height="24" viewBox="0 0 24 24" fill="none" xmlns="http://www.w3.org/2000/svg">
<path d="M15 10.5001C15 11.2957 14.6839 12.0588 14.1213 12.6214C13.5587 13.184 12.7956 13.5001 12 13.5001C11.2044 13.5001 10.4413 13.184 9.87868 12.6214C9.31607 12.0588 9 11.2957 9 10.5001C9 9.70444 9.31607 8.94138 9.87868 8.37877C10.4413 7.81616 11.2044 7.50009 12 7.50009C12.7956 7.50009 13.5587 7.81616 14.1213 8.37877C14.6839 8.94138 15 9.70444 15 10.5001Z" stroke="#3E444D" stroke-width="1.5" stroke-linecap="round" stroke-linejoin="round"/>
<path d="M19.5 10.5001C19.5 17.6421 12 21.7501 12 21.7501C12 21.7501 4.5 17.6421 4.5 10.5001C4.5 8.51097 5.29018 6.60331 6.6967 5.19679C8.10322 3.79027 10.0109 3.00009 12 3.00009C13.9891 3.00009 15.8968 3.79027 17.3033 5.19679C18.7098 6.60331 19.5 8.51097 19.5 10.5001Z" stroke="#3E444D" stroke-width="1.5" stroke-linecap="round" stroke-linejoin="round"/>
</svg>
