<svg width="24" height="24" viewBox="0 0 24 24" fill="none" xmlns="http://www.w3.org/2000/svg">
<path d="M21.75 6.75009V17.2501C21.75 17.8468 21.5129 18.4191 21.091 18.8411C20.669 19.263 20.0967 19.5001 19.5 19.5001H4.5C3.90326 19.5001 3.33097 19.263 2.90901 18.8411C2.48705 18.4191 2.25 17.8468 2.25 17.2501V6.75009M21.75 6.75009C21.75 6.15335 21.5129 5.58106 21.091 5.1591C20.669 4.73714 20.0967 4.50009 19.5 4.50009H4.5C3.90326 4.50009 3.33097 4.73714 2.90901 5.1591C2.48705 5.58106 2.25 6.15335 2.25 6.75009M21.75 6.75009V6.99309C21.75 7.37724 21.6517 7.755 21.4644 8.09039C21.2771 8.42578 21.0071 8.70763 20.68 8.90909L13.18 13.5241C12.8252 13.7426 12.4167 13.8583 12 13.8583C11.5833 13.8583 11.1748 13.7426 10.82 13.5241L3.32 8.91009C2.99292 8.70863 2.72287 8.42678 2.53557 8.09139C2.34827 7.756 2.24996 7.37824 2.25 6.99409V6.75009" stroke="#3E444D" stroke-width="1.5" stroke-linecap="round" stroke-linejoin="round"/>
</svg>
