<svg width="24" height="24" viewBox="0 0 24 24" fill="none" xmlns="http://www.w3.org/2000/svg">
<path d="M2.25 6.75009C2.25 15.0341 8.966 21.7501 17.25 21.7501H19.5C20.0967 21.7501 20.669 21.513 21.091 21.0911C21.5129 20.6691 21.75 20.0968 21.75 19.5001V18.1281C21.75 17.6121 21.399 17.1621 20.898 17.0371L16.475 15.9311C16.035 15.8211 15.573 15.9861 15.302 16.3481L14.332 17.6411C14.05 18.0171 13.563 18.1831 13.122 18.0211C11.4849 17.4192 9.99815 16.4687 8.76478 15.2353C7.53141 14.0019 6.58087 12.5152 5.979 10.8781C5.817 10.4371 5.983 9.95009 6.359 9.66809L7.652 8.69809C8.015 8.42709 8.179 7.96409 8.069 7.52509L6.963 3.10209C6.90214 2.85879 6.76172 2.64279 6.56405 2.48843C6.36638 2.33406 6.1228 2.25017 5.872 2.25009H4.5C3.90326 2.25009 3.33097 2.48714 2.90901 2.9091C2.48705 3.33106 2.25 3.90335 2.25 4.50009V6.75009Z" stroke="#3E444D" stroke-width="1.5" stroke-linecap="round" stroke-linejoin="round"/>
</svg>
