<svg width="20" height="20" viewBox="0 0 20 20" fill="none" xmlns="http://www.w3.org/2000/svg">
<path d="M7.21737 16.2501C12.878 16.2501 15.9736 11.9223 15.9736 8.16965C15.9736 8.04669 15.9709 7.92436 15.9647 7.80251C16.5656 7.40167 17.088 6.90134 17.5 6.33204C16.9486 6.55812 16.3552 6.71036 15.7327 6.77901C16.368 6.42745 16.856 5.87107 17.0861 5.20794C16.4914 5.53336 15.8329 5.76983 15.132 5.89736C14.5702 5.34538 13.7704 5.00012 12.8855 5.00012C11.1858 5.00012 9.80747 6.27206 9.80747 7.83982C9.80747 8.06275 9.8346 8.27938 9.88715 8.48736C7.32962 8.36881 5.06162 7.23857 3.54392 5.5203C3.27932 5.93987 3.12697 6.42761 3.12697 6.94762C3.12697 7.93286 3.67034 8.80271 4.49658 9.3117C3.99176 9.29737 3.51748 9.16922 3.10274 8.95636C3.10206 8.96817 3.10206 8.98014 3.10206 8.99258C3.10206 10.3681 4.16305 11.5165 5.57104 11.7767C5.31257 11.8417 5.04063 11.8767 4.75982 11.8767C4.56158 11.8767 4.36879 11.8584 4.1813 11.8255C4.57301 12.9537 5.70923 13.7749 7.05632 13.798C6.00284 14.5599 4.67588 15.0138 3.23411 15.0138C2.98588 15.0138 2.74089 15.0007 2.5 14.9744C3.86193 15.7799 5.47908 16.2501 7.21737 16.2501Z" fill="#3E444D"/>
</svg>
