<svg width="25" height="24" viewBox="0 0 25 24" fill="none" xmlns="http://www.w3.org/2000/svg">
<path d="M7.25 3V5.25M17.75 3V5.25M3.5 18.75V7.5C3.5 6.90326 3.73705 6.33097 4.15901 5.90901C4.58097 5.48705 5.15326 5.25 5.75 5.25H19.25C19.8467 5.25 20.419 5.48705 20.841 5.90901C21.2629 6.33097 21.5 6.90326 21.5 7.5V18.75M3.5 18.75C3.5 19.3467 3.73705 19.919 4.15901 20.341C4.58097 20.7629 5.15326 21 5.75 21H19.25C19.8467 21 20.419 20.7629 20.841 20.341C21.2629 19.919 21.5 19.3467 21.5 18.75M3.5 18.75V11.25C3.5 10.6533 3.73705 10.081 4.15901 9.65901C4.58097 9.23705 5.15326 9 5.75 9H19.25C19.8467 9 20.419 9.23705 20.841 9.65901C21.2629 10.081 21.5 10.6533 21.5 11.25V18.75M12.5 12.75H12.508V12.758H12.5V12.75ZM12.5 15H12.508V15.008H12.5V15ZM12.5 17.25H12.508V17.258H12.5V17.25ZM10.25 15H10.258V15.008H10.25V15ZM10.25 17.25H10.258V17.258H10.25V17.25ZM8 15H8.008V15.008H8V15ZM8 17.25H8.008V17.258H8V17.25ZM14.75 12.75H14.758V12.758H14.75V12.75ZM14.75 15H14.758V15.008H14.75V15ZM14.75 17.25H14.758V17.258H14.75V17.25ZM17 12.75H17.008V12.758H17V12.75ZM17 15H17.008V15.008H17V15Z" stroke="white" stroke-width="1.5" stroke-linecap="round" stroke-linejoin="round"/>
</svg>
