<svg width="20" height="20" viewBox="0 0 20 20" fill="none" xmlns="http://www.w3.org/2000/svg">
<path d="M14.9317 11.934C14.7159 12.1432 14.6167 12.4457 14.6659 12.7423L15.4067 16.8423C15.4692 17.1898 15.3226 17.5415 15.0317 17.7423C14.7467 17.9507 14.3676 17.9757 14.0567 17.809L10.3659 15.884C10.2376 15.8157 10.0951 15.779 9.94924 15.7748H9.72341C9.64508 15.7865 9.56841 15.8115 9.49841 15.8498L5.80675 17.784C5.62425 17.8757 5.41758 17.9082 5.21508 17.8757C4.72175 17.7823 4.39258 17.3123 4.47341 16.8165L5.21508 12.7165C5.26425 12.4173 5.16508 12.1132 4.94925 11.9007L1.94008 8.98399C1.68841 8.73982 1.60091 8.37315 1.71591 8.04232C1.82758 7.71232 2.11258 7.47149 2.45675 7.41732L6.59841 6.81649C6.91341 6.78399 7.19008 6.59232 7.33175 6.30899L9.15674 2.56732C9.20008 2.48398 9.25591 2.40732 9.32341 2.34232L9.39841 2.28398C9.43758 2.24065 9.48258 2.20482 9.53258 2.17565L9.62341 2.14232L9.76508 2.08398H10.1159C10.4292 2.11648 10.7051 2.30398 10.8492 2.58398L12.6984 6.30899C12.8317 6.58149 13.0909 6.77065 13.3901 6.81649L17.5317 7.41732C17.8817 7.46732 18.1742 7.70899 18.2901 8.04232C18.3992 8.37649 18.3051 8.74315 18.0484 8.98399L14.9317 11.934Z" fill="#F6882F"/>
</svg>
