<svg width="70" height="147" viewBox="0 0 70 147" fill="none" xmlns="http://www.w3.org/2000/svg">
<path d="M35.0411 57.4662C35.2815 57.8603 59.0789 61.86 60.2611 61.6709C60.3176 61.6604 60.3731 61.6446 60.4266 61.6236C61.9162 61.1349 69.1669 55.9451 69.7186 55.5038C71.0781 54.4122 67.1454 45.0887 65.7346 43.4573C64.7928 42.3697 62.8737 41.755 62.8737 41.755C62.8737 41.755 59.2878 25.0941 56.285 21.3308C55.5284 20.385 40.7393 18.2453 37.9414 19.128C36.7593 19.522 33.6422 21.9888 33.5043 22.4854C33.327 23.2183 34.8008 57.0643 35.0411 57.4662Z" fill="#37474F"/>
<path d="M35.0403 57.4662C35.2807 57.8602 59.0781 61.86 60.2603 61.6708C60.3168 61.6603 60.3722 61.6445 60.4258 61.6235C58.8929 55.1491 51.6737 24.7591 51.3899 24.5344C51.1062 24.3098 36.9279 22.6626 33.5035 22.4893C33.3262 23.2183 34.7999 57.0642 35.0403 57.4662Z" fill="#455A64"/>
<path d="M32.9486 17.5362C33.055 19.6996 33.8037 21.4413 34.6864 21.6108V21.6305L54.7402 23.3959L54.3462 15.0654L34.7692 13.3433C34.6728 13.3051 34.5694 13.2876 34.4658 13.2921C34.4304 13.288 34.3947 13.288 34.3594 13.2921H34.2884C33.4451 13.5758 32.854 15.3806 32.9486 17.5362Z" fill="#F6882F"/>
<path opacity="0.1" d="M32.9486 17.5362C33.055 19.6996 33.8037 21.4413 34.6864 21.6108V21.6305L54.7402 23.3959L54.3462 15.0654L34.7692 13.3433C34.6728 13.3051 34.5694 13.2876 34.4658 13.2921C34.4304 13.288 34.3947 13.288 34.3594 13.2921H34.2884C33.4451 13.5758 32.854 15.3806 32.9486 17.5362Z" fill="black"/>
<path d="M52.831 19.3112C52.7252 17.0089 53.4079 15.1072 54.3558 15.0637C55.3037 15.0201 56.1578 16.8512 56.2636 19.1535C56.3693 21.4559 55.6867 23.3576 54.7388 23.4011C53.7909 23.4446 52.9367 21.6135 52.831 19.3112Z" fill="#F6882F"/>
<path d="M67.3672 53.3958C67.3672 53.3958 67.0638 55.0233 65.9289 55.5514C65.1576 55.8746 64.317 55.9966 63.4857 55.906L61.208 47.2367L56.9521 37.9329C56.9521 37.9329 58.8515 36.3803 59.3165 36.3369C60.143 36.3751 60.9666 36.4607 61.7833 36.5931C61.7833 36.5931 63.7931 45.4279 63.9034 45.6565C64.0137 45.885 67.3672 53.3958 67.3672 53.3958Z" fill="#EBEBEB"/>
<path d="M61.7891 36.5921C61.6157 37.1674 60.1734 37.8886 59.7124 38.0186C58.9366 38.1052 58.1556 38.1342 57.3756 38.1053L57.7972 39.7998L56.9421 37.9319C56.9421 37.9319 58.8888 36.3281 59.3065 36.336C59.7242 36.3438 61.7891 36.5921 61.7891 36.5921Z" fill="#DBDBDB"/>
<path d="M65.5107 44.2734C64.7699 44.9705 63.9797 45.6132 63.1463 46.1965C62.1848 46.8073 58.3821 47.2447 58.3821 47.2447L61.4834 59.2793C61.4834 59.2793 64.5965 58.5345 66.7559 57.0962C68.0721 56.2174 69.4355 54.3023 69.4355 54.3023C69.4355 54.3023 68.4859 50.3617 67.9933 49.1165C67.5007 47.8712 65.5107 44.2734 65.5107 44.2734Z" fill="#455A64"/>
<path d="M11.6338 104.508L29.8394 104.902C29.8394 104.902 29.6345 95.6853 29.7843 94.8499C29.9734 93.7859 48.4746 53.6074 48.4746 53.6074H31.2068C31.2068 53.6074 12.9736 86.9253 12.4495 91.4373C11.8426 96.6271 11.6338 104.508 11.6338 104.508Z" fill="#F7A9A0"/>
<path d="M32.9013 93.0227C32.9013 93.0227 13.6395 87.624 13.3164 87.3797C12.9933 87.1354 31.2068 53.5811 31.2068 53.5811H48.4746L32.9013 93.0227Z" fill="#37474F"/>
<path d="M32.1532 88.8373C26.9792 87.0995 21.7303 85.5587 16.4302 84.2583C16.4171 84.2541 16.4029 84.2553 16.3907 84.2616C16.3785 84.2679 16.3693 84.2788 16.3651 84.2918C16.361 84.3049 16.3621 84.3191 16.3684 84.3313C16.3747 84.3435 16.3856 84.3527 16.3986 84.3568C21.5687 86.1104 26.8216 87.6315 32.1178 88.9516C32.1253 88.9539 32.1331 88.9548 32.141 88.954C32.1488 88.9533 32.1564 88.9511 32.1633 88.9474C32.1703 88.9437 32.1765 88.9388 32.1815 88.9327C32.1865 88.9267 32.1903 88.9197 32.1926 88.9122C32.195 88.9047 32.1958 88.8968 32.1951 88.889C32.1943 88.8812 32.1921 88.8735 32.1884 88.8666C32.1848 88.8596 32.1798 88.8535 32.1737 88.8485C32.1677 88.8434 32.1607 88.8397 32.1532 88.8373Z" fill="#263238"/>
<path d="M34.0125 53.585L35.2499 87.0724L48.4746 53.5771L34.0125 53.585Z" fill="#263238"/>
<path d="M0.556824 153.196C1.55774 153.484 29.7174 152.333 30.7814 151.62C31.069 151.423 31.1124 143.344 31.0533 138.687C31.0774 137.998 30.9048 137.317 30.5559 136.723C30.2069 136.129 29.696 135.647 29.083 135.333C25.7413 133.863 17.9034 133.548 14.5027 135.83C13.6357 136.409 12.8121 139.648 12.8121 139.648L13.0289 142.95C13.0289 142.95 2.4365 148.219 1.37648 149.133C0.316452 150.047 -0.440153 152.908 0.556824 153.196Z" fill="#C7C7C7"/>
<path d="M0.47385 153.238C1.47477 153.526 29.8117 152.367 30.8639 151.642C31.3525 151.307 31.3565 145.27 31.2264 138.902L12.7922 139.604L13.0129 142.926C13.0129 142.926 2.37323 148.222 1.2935 149.14C0.213776 150.058 -0.531008 152.947 0.47385 153.238Z" fill="#F6882F"/>
<path d="M12.2998 141.898C14.1558 141.472 16.4532 141.666 17.9349 142.938C17.994 142.99 17.9349 143.068 17.86 143.053C16.0503 142.548 14.1914 142.24 12.3156 142.134C12.2842 142.137 12.2533 142.126 12.2297 142.105C12.206 142.085 12.1916 142.055 12.1895 142.024C12.1874 141.993 12.1978 141.962 12.2185 141.938C12.2392 141.915 12.2684 141.9 12.2998 141.898Z" fill="#263238"/>
<path d="M10.9834 142.764C12.8394 142.339 15.1368 142.532 16.6185 143.805C16.6776 143.856 16.6185 143.935 16.5436 143.919C14.7334 143.416 12.8747 143.108 10.9992 143.001C10.9678 143.003 10.9369 142.992 10.9133 142.972C10.8896 142.951 10.8752 142.922 10.8731 142.89C10.871 142.859 10.8814 142.828 10.9021 142.804C10.9228 142.781 10.952 142.766 10.9834 142.764Z" fill="#263238"/>
<path d="M9.66699 143.632C11.523 143.207 13.8204 143.404 15.3021 144.677C15.3612 144.724 15.3021 144.807 15.2272 144.791C13.4176 144.285 11.5587 143.976 9.68274 143.869C9.65139 143.871 9.62049 143.861 9.59684 143.84C9.5732 143.819 9.55874 143.79 9.55665 143.759C9.55456 143.727 9.565 143.696 9.5857 143.673C9.60639 143.649 9.63564 143.635 9.66699 143.632Z" fill="#263238"/>
<path d="M8.35058 144.503C10.2066 144.077 12.504 144.27 13.9857 145.543C14.0448 145.594 13.9857 145.673 13.9108 145.657C12.1006 145.154 10.2419 144.847 8.36634 144.739C8.33498 144.741 8.30409 144.731 8.28044 144.71C8.25679 144.689 8.24233 144.66 8.24024 144.629C8.23815 144.597 8.2486 144.566 8.26929 144.543C8.28998 144.519 8.31923 144.505 8.35058 144.503Z" fill="#263238"/>
<path d="M8.66892 137.717C9.36247 136.673 10.7496 137.075 11.5534 137.717C12.9202 138.813 13.9736 140.25 14.6074 141.883C14.6074 141.918 14.6074 141.942 14.568 141.95C14.568 142.091 14.4459 142.249 14.2843 142.194C12.7081 141.686 10.9781 141.339 9.61467 140.362C8.81866 139.774 8.01478 138.703 8.66892 137.717ZM12.0657 140.917C12.8302 141.189 13.6026 141.418 14.3592 141.705C13.7602 140.897 13.2006 140.062 12.5228 139.313C12.2003 138.948 11.8541 138.605 11.4865 138.285C10.9111 137.8 8.66497 136.815 9.07874 138.852C9.30729 139.975 11.1554 140.598 12.0657 140.917Z" fill="#263238"/>
<path d="M19.3428 141.177C17.8296 141.898 16.0563 141.938 14.4249 142.162C14.2554 142.186 14.1648 142.012 14.1885 141.871C14.1812 141.868 14.1746 141.864 14.1691 141.859C14.1636 141.853 14.1594 141.847 14.1568 141.84C14.1541 141.833 14.1531 141.825 14.1538 141.817C14.1545 141.81 14.1569 141.802 14.1609 141.796C15.0742 140.307 16.3624 139.084 17.8966 138.249C18.799 137.776 20.2373 137.627 20.7338 138.773C21.2028 139.841 20.2255 140.763 19.3428 141.177ZM20.1309 139.81C20.8954 137.879 18.5113 138.454 17.8611 138.828C17.4493 139.081 17.0543 139.36 16.6789 139.664C15.9025 140.303 15.1594 140.982 14.4525 141.697C15.2406 141.536 16.0484 141.445 16.8484 141.303C17.7823 141.157 19.7093 140.878 20.1309 139.81Z" fill="#263238"/>
<path d="M23.8408 134.487L20.0215 134.64L19.0498 110.342L22.8692 110.189L23.8408 134.487Z" fill="#DBDBDB"/>
<path d="M17.7802 115.338C17.5753 115.48 18.8639 117.778 19.3565 117.998C19.849 118.219 22.2331 118.357 23.167 117.959C23.6163 117.766 24.6172 115.405 24.6054 115.228C24.5935 115.051 19.5732 114.101 17.7802 115.338Z" fill="#C7C7C7"/>
<path d="M25.4142 134.852C25.6191 134.706 24.295 132.429 23.7867 132.216C23.2784 132.003 20.9061 131.897 19.9761 132.311C19.5308 132.508 18.5614 134.884 18.5772 135.069C18.593 135.254 23.6409 136.105 25.4142 134.852Z" fill="#C7C7C7"/>
<path d="M11.4091 102.539C10.4081 102.302 11.0544 111.287 12.0868 112.521C13.4582 114.16 17.3633 115.701 21.3788 115.748C24.8466 115.787 28.401 113.841 29.7329 112.67C31.0649 111.5 30.4383 101.916 29.9812 102.113C28.003 102.984 24.0072 105.51 11.4091 102.539Z" fill="#A6A6A6"/>
<path d="M29.0478 163.702C30.0408 164.029 59.1028 163.82 60.1786 163.126C60.5727 162.87 59.4693 135.313 59.4693 135.313L41.2834 135.4L41.8942 153.838C41.8942 153.838 31.1008 158.764 30.0014 159.651C28.9019 160.537 28.0587 163.382 29.0478 163.702Z" fill="#F7A9A0"/>
<path d="M32.0966 53.5762C32.0966 53.5762 32.4907 61.6426 34.3585 68.188C34.5083 68.7318 34.6738 69.2638 34.8511 69.7643C36.5816 70.4691 38.2447 71.329 39.8202 72.3335C39.8202 72.3335 40.6084 103.929 40.5571 105.888C40.3719 113.225 41.7393 148.982 41.7393 148.982L59.9844 149.073C59.9844 149.073 58.6761 108.638 58.7076 105.951C58.7549 101.616 55.5551 53.5723 55.5551 53.5723L32.0966 53.5762Z" fill="#F7A9A0"/>
<path d="M32.0978 53.5771C32.0978 53.5771 32.4919 61.6436 34.3597 68.189C34.5095 68.7328 34.6711 69.2647 34.8484 69.7652C36.5815 70.4697 38.2473 71.3297 39.8254 72.3345C39.8254 72.3345 39.4628 96.455 39.5259 99.2804C39.5259 99.2804 58.3857 99.0479 59.8477 98.6657C59.4024 91.4583 58.5118 82.1151 57.4399 71.4754C57.4399 71.4754 58.3896 69.6825 58.4172 66.459C58.4448 63.0859 57.4005 57.1789 55.5563 53.5811L32.0978 53.5771Z" fill="#37474F"/>
<path d="M42.4014 73.4926C41.6133 72.9291 40.77 72.4562 39.9346 71.9676C39.0992 71.479 38.2204 70.9943 37.3299 70.5647C35.5795 69.7617 33.7772 69.0772 31.9352 68.5156C31.8879 68.5156 31.8563 68.5787 31.9036 68.5984C33.6611 69.3865 35.3635 70.2771 37.1092 71.0849C37.9879 71.479 38.8746 71.873 39.7573 72.2671C40.64 72.6611 41.4951 73.1261 42.3817 73.5084C42.4054 73.536 42.4251 73.5044 42.4014 73.4926Z" fill="#263238"/>
<path d="M37.8196 64.4763C37.8196 63.6054 37.7604 62.7385 37.7329 61.8715C37.658 59.8264 37.6107 57.7654 37.4491 55.7242C37.4491 55.7075 37.4425 55.6914 37.4307 55.6796C37.4188 55.6678 37.4028 55.6611 37.3861 55.6611C37.3694 55.6611 37.3533 55.6678 37.3415 55.6796C37.3297 55.6914 37.323 55.7075 37.323 55.7242C37.2718 57.3004 37.323 58.8964 37.323 60.4805C37.323 61.2686 37.323 62.0568 37.3506 62.8449C37.39 63.5997 37.39 64.356 37.3506 65.1107C37.2994 65.6821 37.1575 66.7894 36.4128 66.8485C35.668 66.9077 35.1833 66.2535 35.0178 65.6939C34.6388 64.2529 34.4104 62.7765 34.3361 61.2883C34.2612 60.4214 34.1942 56.7724 34.2533 55.8936C34.2533 55.8385 34.1705 55.8385 34.1666 55.8936C34.1036 56.7882 33.9696 57.6748 33.9262 58.5732C33.8829 59.4717 33.8671 60.3584 33.9262 61.2489C33.9853 62.1395 34.0287 62.9631 34.1469 63.8143C34.2213 64.5898 34.3948 65.3526 34.6631 66.0841C34.7652 66.3957 34.9422 66.6776 35.1785 66.905C35.4148 67.1324 35.7033 67.2984 36.0187 67.3884C36.1018 67.4052 36.1862 67.4144 36.2709 67.416C36.2709 67.6012 36.2985 67.7864 36.3064 67.9677C36.3064 68.2553 36.3536 68.5391 36.3891 68.8267C36.4264 69.1072 36.4817 69.3849 36.5546 69.6582C36.6111 69.9326 36.7053 70.1978 36.8344 70.4463C36.8396 70.4538 36.8471 70.4594 36.8557 70.4624C36.8643 70.4654 36.8736 70.4656 36.8823 70.463C36.8911 70.4603 36.8987 70.455 36.9043 70.4478C36.9098 70.4406 36.9129 70.4318 36.9132 70.4227C36.9243 70.1483 36.9058 69.8735 36.858 69.603C36.8226 69.3272 36.7871 69.0435 36.7359 68.7676C36.6847 68.4918 36.6374 68.2238 36.5861 67.9519C36.5507 67.7706 36.527 67.5815 36.4955 67.3963C36.716 67.3607 36.9238 67.2697 37.0996 67.1318C37.2753 66.994 37.4132 66.8138 37.5004 66.6082C37.7668 65.9309 37.8759 65.2019 37.8196 64.4763Z" fill="#263238"/>
<path d="M57.7142 94.5908C52.2564 94.5475 46.7908 94.709 41.3448 95.1189C41.3341 95.1219 41.3247 95.1284 41.318 95.1373C41.3113 95.1462 41.3077 95.157 41.3077 95.1681C41.3077 95.1793 41.3113 95.1901 41.318 95.199C41.3247 95.2079 41.3341 95.2143 41.3448 95.2174C46.8065 95.2844 52.2722 95.1031 57.7181 94.713C57.7316 94.7091 57.7434 94.7008 57.7516 94.6895C57.7599 94.6781 57.7641 94.6644 57.7636 94.6504C57.7632 94.6363 57.7581 94.6229 57.7491 94.6121C57.7402 94.6013 57.7279 94.5938 57.7142 94.5908Z" fill="#263238"/>
<path d="M54.509 64.3148C53.2757 64.4455 52.0329 64.46 50.7969 64.3581C49.6268 64.2216 48.5163 63.7679 47.5853 63.0459C45.5599 61.4263 44.7008 58.8176 44.1806 56.3705C44.1806 56.359 44.1761 56.348 44.1679 56.3398C44.1598 56.3317 44.1488 56.3271 44.1373 56.3271C44.1258 56.3271 44.1148 56.3317 44.1066 56.3398C44.0985 56.348 44.0939 56.359 44.0939 56.3705C44.2949 58.4866 44.7205 60.6815 46.0643 62.3996C46.6394 63.1574 47.3721 63.7812 48.2119 64.2281C49.1072 64.6557 50.0885 64.8727 51.0807 64.8625C52.2442 64.8675 53.4039 64.7272 54.5326 64.4448C54.5448 64.4373 54.5544 64.4264 54.5603 64.4133C54.5661 64.4003 54.5678 64.3858 54.5653 64.3717C54.5627 64.3577 54.556 64.3447 54.5459 64.3346C54.5359 64.3244 54.523 64.3175 54.509 64.3148Z" fill="#263238"/>
<path d="M24.7202 163.851L25.268 161.286L27.8136 103.784L26.1231 96.1908L27.723 65.9821L27.9121 42.1295L24.4798 41.1641L23.3016 41.7315L24.4798 65.9821L22.9627 96.1908L24.7399 104.703L24.7202 163.851Z" fill="#F6882F"/>
<path opacity="0.4" d="M24.7202 163.851L25.268 161.286L27.8136 103.784L26.1231 96.1908L27.723 65.9821L27.9121 42.1295L24.4798 41.1641L23.3016 41.7315L24.4798 65.9821L22.9627 96.1908L24.7399 104.703L24.7202 163.851Z" fill="black"/>
<path d="M39.3276 29.6371C29.8071 31.6389 12.2832 29.9918 11.9364 25.531C11.696 22.4376 13.7964 12.5703 19.5615 7.58148C20.4126 6.84065 27.8998 16.0341 26.8043 17.1651C25.6792 18.4688 24.7994 19.9654 24.2075 21.5825C24.0301 22.1696 33.9802 23.8247 37.9208 24.798C45.211 26.591 41.9678 29.0697 39.3276 29.6371Z" fill="#F7A9A0"/>
<path d="M29.783 31.9034L31.1898 22.1504C31.1898 22.1504 37.9834 23.2813 41.7151 25.094C45.4469 26.9067 43.918 28.8888 40.0246 29.9804C36.1313 31.0719 29.783 31.9034 29.783 31.9034Z" fill="#F6882F"/>
<path opacity="0.1" d="M30.7959 31.7623C33.9026 31.3366 36.9835 30.7406 40.0249 29.9772C43.9182 28.8856 45.4511 26.9074 41.7154 25.0908L41.4868 24.9805L30.7959 31.7623Z" fill="black"/>
<path d="M33.2518 22.872C33.0874 25.6627 32.7359 28.4392 32.1997 31.1828H32.1288C32.2824 28.9011 32.9169 24.3813 33.1573 22.872C33.1612 22.8326 33.2558 22.8444 33.2518 22.872Z" fill="#263238"/>
<path d="M38.3643 27.4264H38.3879C38.3524 28.8095 38.3643 32.0172 40.5237 31.7611C41.3907 31.6507 42.167 31.0754 42.8093 30.5158C43.4672 29.9381 44.0605 29.2907 44.5786 28.5849C45.1579 27.7968 45.6741 26.9456 46.2022 26.1299C46.2219 26.0945 46.2731 26.1299 46.2534 26.1654C45.8372 27.0578 45.3551 27.9179 44.8111 28.7386C44.2755 29.5328 43.6353 30.2512 42.9078 30.8744C42.2142 31.4498 41.3907 32.0251 40.4686 32.096C40.067 32.1304 39.6659 32.0248 39.3333 31.7971C39.0007 31.5694 38.7572 31.2337 38.644 30.8468C38.2947 29.7423 38.199 28.5731 38.3643 27.4264Z" fill="#263238"/>
<path d="M56.1109 59.9372C56.04 60.0081 30.0004 57.2024 29.7561 56.8871C29.4172 56.4379 36.8492 29.9372 39.1544 25.5868C40.1357 23.7347 44.8486 23.4668 46.7086 25.2203C51.3704 29.6023 54.6135 43.7767 55.2952 48.0286C56.4301 55.0311 56.371 59.6771 56.1109 59.9372Z" fill="white"/>
<path d="M39.6621 24.7949L33.2744 61.419L28.3565 58.8891C28.3565 58.8891 36.5136 31.9196 37.0258 30.0517C37.5381 28.1839 38.6691 25.4964 39.6621 24.7949Z" fill="#F6882F"/>
<path d="M45.1773 24.042C44.8542 23.9041 44.5705 38.4922 44.535 40.896C44.4995 43.2998 44.2631 62.2739 44.2631 62.2739L58.6621 60.406C58.6621 60.406 56.1125 43.5165 51.5414 33.2157C48.9643 27.3797 47.5614 25.035 45.1773 24.042Z" fill="#F6882F"/>
<path d="M40.0275 29.3097C41.6038 29.4043 44.0706 26.4134 44.7563 24.38C44.8036 24.2382 44.3622 22.9259 43.9287 21.3103C43.6647 20.3291 43.3928 19.2257 43.2155 18.2051L37.0721 20.8729C37.6592 22.0881 38.0959 23.3704 38.3725 24.6913C38.3951 24.832 38.4044 24.9745 38.4001 25.1169C38.4001 25.1169 38.4001 25.1603 38.4001 25.1879C38.4198 26.0075 38.5143 29.2191 40.0275 29.3097Z" fill="#F7A9A0"/>
<path d="M38.4118 25.1173C38.4099 25.1396 38.4099 25.162 38.4118 25.1843C38.6356 25.1789 38.8584 25.1538 39.0778 25.1094C42.7702 24.3843 42.8608 19.695 42.8056 18.3867L41.2727 19.0527L37.0799 20.8733C37.6689 22.0877 38.1057 23.3702 38.3803 24.6917C38.4021 24.8325 38.4127 24.9748 38.4118 25.1173Z" fill="#263238"/>
<path d="M45.271 12.6067C45.4996 15.0577 42.9067 21.4731 40.9679 22.6198C38.1464 24.2867 34.2058 23.6916 32.9645 20.4564C31.7587 17.3039 35.2816 9.0286 37.3898 8.04739C40.5108 6.613 44.9282 8.98525 45.271 12.6067Z" fill="#F7A9A0"/>
<path opacity="0.2" d="M44.4023 16.885C43.5196 19.3637 42.1286 21.9369 40.9622 22.6186C38.1446 24.2855 34.208 23.6905 32.9627 20.4552C32.5214 19.3006 32.7145 17.4446 33.2504 15.5137C33.2504 15.6082 33.2031 17.0899 33.9834 17.4288C34.2107 17.5223 34.4616 17.5425 34.7011 17.4867C34.9405 17.4309 35.1566 17.3019 35.3192 17.1175H35.8906C36.547 17.8451 37.4468 18.3077 38.4205 18.4179C39.1001 18.5302 39.796 18.4936 40.46 18.3106C41.1241 18.1276 41.7405 17.8025 42.2665 17.3579C42.9719 16.6919 43.0231 16.3806 43.0231 16.3806L44.4023 16.885Z" fill="#263238"/>
<path d="M38.0286 15.2656C38.0286 15.2656 38.0522 15.3011 38.0286 15.3169C37.8433 15.7464 37.7015 16.2665 38.0286 16.566C38.0286 16.566 38.0286 16.5976 38.0286 16.5897C37.5872 16.3296 37.7842 15.64 38.0286 15.2656Z" fill="#263238"/>
<path d="M38.5905 14.9704C39.3077 15.1911 38.8073 16.6097 38.1452 16.4048C37.4832 16.1999 37.9916 14.7813 38.5905 14.9704Z" fill="#263238"/>
<path d="M35.502 14.3721C35.502 14.3721 35.4625 14.3721 35.4547 14.3997C35.3167 14.8449 35.0803 15.3296 34.6311 15.3336C34.6311 15.3336 34.6074 15.3572 34.6311 15.3612C35.1315 15.4518 35.4428 14.8174 35.502 14.3721Z" fill="#263238"/>
<path d="M35.2723 13.7762C34.5867 13.4728 34.0271 14.8717 34.6655 15.1515C35.3038 15.4313 35.8476 14.0284 35.2723 13.7762Z" fill="#263238"/>
<path d="M39.3802 14.5177C39.2068 14.3995 39.065 14.2655 38.8994 14.1236C38.7191 14.0072 38.5809 13.8359 38.5054 13.635C38.4918 13.5657 38.5019 13.4938 38.5341 13.4309C38.5662 13.3681 38.6186 13.3178 38.6827 13.2882C38.8189 13.2454 38.9641 13.2404 39.103 13.2737C39.2418 13.307 39.3689 13.3774 39.4708 13.4774C39.7069 13.6418 39.8716 13.8897 39.9319 14.1709C39.9524 14.2416 39.9493 14.3171 39.9232 14.3859C39.897 14.4547 39.8491 14.5131 39.7868 14.5523C39.7244 14.5914 39.6511 14.6093 39.5777 14.603C39.5043 14.5968 39.435 14.5668 39.3802 14.5177Z" fill="#263238"/>
<path d="M34.851 13.1815C35.0283 13.2919 35.2096 13.3668 35.3988 13.4613C35.5781 13.5878 35.7942 13.6515 36.0135 13.6426C36.082 13.6261 36.1431 13.5874 36.1873 13.5325C36.2315 13.4776 36.2563 13.4096 36.2578 13.3392C36.2436 13.1986 36.1918 13.0644 36.1079 12.9507C36.024 12.8371 35.9111 12.748 35.781 12.6929C35.5332 12.5462 35.2395 12.497 34.9574 12.555C34.8907 12.5697 34.83 12.6039 34.7829 12.6533C34.7358 12.7028 34.7045 12.7651 34.6931 12.8324C34.6817 12.8997 34.6906 12.9689 34.7187 13.0311C34.7469 13.0933 34.7929 13.1457 34.851 13.1815Z" fill="#263238"/>
<path d="M36.8134 19.4388C36.6788 19.5329 36.5163 19.5787 36.3524 19.5688C36.1894 19.5079 36.0415 19.4125 35.9189 19.2891C35.9189 19.2891 35.8874 19.2891 35.8913 19.2891C35.9231 19.398 35.9839 19.4962 36.0672 19.5732C36.1505 19.6502 36.2531 19.7032 36.3642 19.7265C36.462 19.7353 36.5601 19.7144 36.6459 19.6666C36.7316 19.6188 36.801 19.5463 36.8449 19.4585C36.8607 19.4506 36.8331 19.4309 36.8134 19.4388Z" fill="#263238"/>
<path d="M36.8143 17.9611C36.6419 18.0965 36.4432 18.1945 36.2308 18.2488C36.0184 18.303 35.7971 18.3124 35.5808 18.2763C35.3917 18.246 35.2074 18.1903 35.0331 18.1108L34.9346 18.0596L34.8439 18.0123C34.8227 17.9989 34.8063 17.979 34.7971 17.9557C34.7878 17.9323 34.7863 17.9066 34.7927 17.8823V17.8389V17.8035C34.9031 17.4606 35.1198 16.9562 35.1198 16.9562C34.974 16.9562 34.241 17.039 34.3317 16.8656C34.9067 15.3494 35.637 13.8968 36.5108 12.5309C36.5172 12.5234 36.526 12.5183 36.5356 12.5164C36.5453 12.5145 36.5553 12.516 36.5641 12.5206C36.5728 12.5252 36.5797 12.5326 36.5836 12.5417C36.5875 12.5507 36.5883 12.5608 36.5857 12.5703C36.0616 13.9692 35.2932 15.2657 34.7415 16.6646C35.0045 16.637 35.2702 16.6489 35.5296 16.7001C35.573 16.7277 35.1001 17.6616 35.0607 17.8192C35.3281 17.9448 35.6181 18.0151 35.9133 18.026C36.2085 18.0368 36.5029 17.9879 36.7788 17.8823C36.83 17.8941 36.8537 17.9374 36.8143 17.9611Z" fill="#263238"/>
<path d="M35.2511 18.1108C35.3683 18.4042 35.5598 18.6622 35.8067 18.8595C35.944 18.9639 36.1111 19.0219 36.2835 19.025C36.6776 19.025 36.7604 18.7097 36.7722 18.4181C36.7778 18.2621 36.7646 18.106 36.7328 17.9531C36.2682 18.1618 35.7492 18.217 35.2511 18.1108Z" fill="#263238"/>
<path d="M35.806 18.8599C35.9433 18.9644 36.1104 19.0223 36.2829 19.0254C36.6769 19.0254 36.7597 18.7102 36.7715 18.4186C36.5844 18.3734 36.3875 18.3923 36.2124 18.4723C36.0374 18.5523 35.8942 18.6888 35.806 18.8599Z" fill="#FF98B9"/>
<path d="M43.6316 17.859C41.9963 17.4255 41.8111 15.2345 42.7095 13.8317C42.7095 13.8317 38.2685 12.945 39.23 9.46545C38.7293 9.81734 38.1561 10.0524 37.5525 10.1534C36.949 10.2543 36.3304 10.2185 35.7425 10.0487L35.045 11.1481C34.651 10.8722 34.6116 9.47727 36.0065 8.86647C36.5105 7.96232 37.3169 7.26469 38.2842 6.89617C38.7137 6.71577 39.1852 6.65965 39.6451 6.7342C40.1049 6.80874 40.5345 7.01096 40.885 7.31781C41.3317 7.1468 41.8101 7.07449 42.2873 7.10585C42.7646 7.13722 43.2294 7.27152 43.6499 7.49952C44.0703 7.72753 44.4364 8.04384 44.723 8.42672C45.0097 8.80961 45.21 9.25 45.3103 9.71765C45.3103 9.71765 47.1033 10.8998 46.9496 12.5115C46.9321 12.9483 46.8264 13.377 46.6388 13.7719C46.4512 14.1667 46.1856 14.5195 45.8581 14.8089C45.8581 14.8089 46.1852 15.5773 45.464 16.7792C45.0266 17.5358 44.1203 17.989 43.6316 17.859Z" fill="#263238"/>
<path d="M39.4264 9.19336C39.3001 9.45943 39.2024 9.73814 39.1348 10.0248C39.059 10.3037 39.0179 10.591 39.0127 10.8799C38.9935 11.4586 39.1966 12.0226 39.5801 12.4562C39.9766 12.8741 40.467 13.1916 41.0106 13.3822C41.2864 13.4689 41.5623 13.5753 41.846 13.6463C42.1297 13.7172 42.4213 13.7724 42.709 13.8472C42.4134 13.8196 42.1218 13.7802 41.8263 13.7448C41.5307 13.7093 41.247 13.6029 40.9554 13.5359C40.3743 13.3538 39.8476 13.0301 39.4225 12.5941C39.017 12.1233 38.8132 11.5117 38.8551 10.8918C38.8994 10.2865 39.0959 9.70232 39.4264 9.19336Z" fill="#263238"/>
<path d="M36.5697 10.4151C37.0887 10.4186 37.6045 10.3333 38.0947 10.1629C38.3344 10.0776 38.5612 9.95958 38.7686 9.81215C38.9731 9.65921 39.1607 9.48483 39.3281 9.29199C39.2183 9.5354 39.0601 9.75393 38.8631 9.93431C38.656 10.1233 38.4117 10.2669 38.1459 10.356C37.8936 10.4507 37.6272 10.5026 37.3578 10.5096C37.0917 10.5228 36.8252 10.4908 36.5697 10.4151Z" fill="#263238"/>
<path d="M42.7287 17.7445C42.7287 17.7445 44.699 15.9397 45.5699 16.6924C46.4408 17.445 44.5887 20.3059 43.3474 20.4714C43.1899 20.5049 43.0273 20.506 42.8694 20.4744C42.7115 20.4428 42.5618 20.3793 42.4293 20.2878C42.2969 20.1963 42.1845 20.0787 42.0991 19.9422C42.0137 19.8058 41.9571 19.6533 41.9327 19.4942L42.7287 17.7445Z" fill="#F7A9A0"/>
<path d="M45.0244 17.4999C45.0441 17.4999 45.0244 17.5275 45.0244 17.5315C44.1496 17.6733 43.5585 18.3196 43.0896 19.025C43.1541 18.9553 43.233 18.9005 43.3208 18.8643C43.4086 18.8282 43.5033 18.8116 43.5981 18.8157C43.693 18.8199 43.7858 18.8446 43.8702 18.8882C43.9545 18.9318 44.0284 18.9933 44.0866 19.0683C44.1063 19.0683 44.0866 19.1156 44.0551 19.1038C43.9238 19.0281 43.7725 18.9946 43.6216 19.008C43.4707 19.0214 43.3276 19.081 43.2118 19.1787C43.0197 19.3425 42.8454 19.5261 42.6916 19.7264C42.6404 19.7934 42.5182 19.7264 42.5655 19.6476C42.7862 18.6033 43.9053 17.3541 45.0244 17.4999Z" fill="#263238"/>
<path d="M46.815 14.7228L47.6426 10.266C47.6426 10.266 45.093 7.3854 44.4192 6.85735C43.7453 6.32931 40.6953 4.96191 40.6953 4.96191L37.3576 7.23171L46.815 14.7228Z" fill="#F6882F"/>
<path opacity="0.1" d="M46.815 14.7228L47.6426 10.266C47.6426 10.266 45.093 7.3854 44.4192 6.85735C43.7453 6.32931 40.6953 4.96191 40.6953 4.96191L37.3576 7.23171L46.815 14.7228Z" fill="black"/>
<path d="M33.6357 7.43238C33.6357 7.43238 40.512 10.7228 46.9707 18.3991L46.8091 14.7225C46.8091 14.7225 42.6912 9.20566 37.3517 7.23535L33.6357 7.43238Z" fill="#F6882F"/>
<path opacity="0.2" d="M33.6357 7.43238C33.6357 7.43238 40.512 10.7228 46.9707 18.3991L46.8091 14.7225C46.8091 14.7225 42.6912 9.20566 37.3517 7.23535L33.6357 7.43238Z" fill="black"/>
<path d="M46.9802 25.023C47.4136 24.6092 45.3566 23.3246 44.6355 23.7581C43.9144 24.1915 39.887 31.1034 40.1984 39.619C40.5097 48.1347 57.9036 56.6346 58.6877 55.4406C59.0148 54.9362 58.9439 53.6595 58.5459 53.1472C57.9863 52.4221 45.3212 45.9319 44.5212 40.5924C43.808 35.8479 45.1202 26.8081 46.9802 25.023Z" fill="#263238"/>
<path d="M50.4813 29.7053C55.6041 39.7617 56.7863 52.2023 55.2968 53.743C51.2419 57.8846 36.6852 58.1605 33.0638 58.0974C31.6018 58.0698 31.7003 45.9643 33.2608 45.8539C36.965 45.5978 45.3546 44.6087 45.5083 44.4983C45.8353 44.258 45.2915 39.1115 45.4373 30.8993C45.5555 24.0229 48.3928 25.5913 50.4813 29.7053Z" fill="#F7A9A0"/>
<path d="M18.8384 47.4963C19 48.2845 19.997 48.45 19.997 48.45C19.5453 48.8744 19.2555 49.4429 19.1773 50.0577C19.0906 51.1493 20.7536 51.7601 20.7536 51.7601C20.3757 52.2987 20.1684 52.9385 20.1585 53.5964C20.1822 54.6486 21.786 55.5037 21.786 55.5037C21.7203 56.1888 21.8944 56.8754 22.2786 57.4464C24.0755 59.9329 31.9134 58.6286 34.0689 57.7695L35.125 46.0738C35.125 46.0738 27.8467 42.9568 24.643 43.3745C22.8815 43.603 18.401 45.3408 18.8384 47.4963Z" fill="#F7A9A0"/>
<path d="M20.0207 48.4034C21.7822 47.5483 23.7446 47.1148 25.644 46.7168C25.6834 46.7168 25.6991 46.772 25.644 46.7798C23.7525 47.1542 21.9122 48.0448 20.0365 48.494C20.001 48.5058 19.9774 48.427 20.0207 48.4034Z" fill="#263238"/>
<path d="M20.8066 51.6064C21.2251 51.4506 21.6624 51.3512 22.107 51.3108C22.5747 51.2373 23.0436 51.1703 23.5138 51.1099C24.4517 50.9956 25.3974 50.8971 26.3432 50.8301C26.3826 50.8301 26.3984 50.8892 26.3432 50.8971C25.4053 51.0153 24.4714 51.1453 23.5414 51.2911C23.0725 51.3699 22.6075 51.4566 22.1425 51.5394C21.7095 51.6503 21.2653 51.7125 20.8185 51.7246C20.808 51.7192 20.799 51.7112 20.7924 51.7015C20.7858 51.6917 20.7817 51.6804 20.7805 51.6687C20.7794 51.657 20.7811 51.6451 20.7857 51.6342C20.7902 51.6233 20.7974 51.6138 20.8066 51.6064Z" fill="#263238"/>
<path d="M21.8393 55.5C22.2186 55.3637 22.6184 55.2931 23.0215 55.2912L24.3061 55.1532C25.1652 55.0547 26.0242 54.9562 26.8754 54.8262C26.9188 54.8262 26.9345 54.8853 26.8754 54.8932C26.0085 55.0271 25.1415 55.1729 24.2746 55.2872C23.849 55.3503 23.4195 55.4133 22.9939 55.4685C22.6069 55.561 22.2063 55.5824 21.8117 55.5315C21.8102 55.5275 21.8097 55.5231 21.8105 55.5189C21.8112 55.5146 21.8131 55.5107 21.816 55.5074C21.8188 55.5042 21.8225 55.5018 21.8266 55.5005C21.8307 55.4992 21.8351 55.499 21.8393 55.5Z" fill="#263238"/>
<path d="M54.8477 38.1295L45.0631 39.3117C45.0631 39.3117 44.3735 32.4589 45.1498 28.3804C45.9261 24.3018 48.2353 25.2634 50.3041 28.735C52.3729 32.2067 54.8477 38.1295 54.8477 38.1295Z" fill="#F6882F"/>
<path d="M45.2396 37.1244C47.9755 36.5527 50.7468 36.1656 53.5346 35.9658C53.5346 35.9658 53.5622 36.0289 53.5346 36.0328C51.2924 36.482 46.7607 37.0416 45.2593 37.215C45.2396 37.2229 45.2396 37.1244 45.2396 37.1244Z" fill="#263238"/>
<path d="M45.4961 39.2724H45.0587L45.102 39.3079C45.102 38.7601 45.0823 38.2163 45.0705 37.6725C45.0114 36.1515 44.8892 34.2994 44.7828 32.7822C44.5849 34.9601 44.6657 37.1544 45.0232 39.3118V39.3552C45.1808 39.3276 45.3345 39.2921 45.4882 39.2567L45.4961 39.2724Z" fill="#263238"/>
<path d="M18.3763 8.66954C18.3763 8.66954 24.169 2.50641 28.6219 0.8947C30.4897 0.216913 38.8438 -0.847053 39.1709 1.16266C39.4665 2.98323 32.1921 3.08174 32.1921 3.08174C32.1921 3.08174 39.5256 2.33303 39.4783 4.591C39.431 6.84897 31.203 5.86776 31.203 5.86776C31.203 5.86776 38.7532 5.26484 38.3355 7.58587C38.0242 9.33944 30.5134 8.87051 30.5134 8.87051C30.5134 8.87051 37.0075 8.40158 36.7632 10.2182C36.4913 12.224 29.5361 12.2279 29.5361 12.2279C29.079 15.609 27.8219 17.2167 25.8989 18.1388C25.4379 18.3438 18.3763 8.66954 18.3763 8.66954Z" fill="#F7A9A0"/>
<path d="M29.6501 3.17671C30.5052 3.05849 31.3761 2.93239 32.2391 2.88904C33.1021 2.8457 33.973 2.83781 34.8399 2.88904C35.9724 2.91461 37.098 3.07332 38.1934 3.36192C36.2231 2.99938 33.11 3.10183 32.243 3.14518C31.3761 3.18853 30.5131 3.18459 29.6501 3.22794C29.6265 3.21217 29.6265 3.18065 29.6501 3.17671Z" fill="#263238"/>
<path d="M29.7455 6.30549C30.8488 6.20303 31.9365 6.05723 33.0438 6.00206C34.1511 5.94689 35.1993 6.00206 36.2987 6.00206C36.3854 6.00206 36.3578 6.04935 36.2711 6.04935C35.1678 6.07299 34.1511 6.18333 33.0477 6.21879C31.9443 6.25426 30.841 6.25032 29.7455 6.32519C29.7297 6.33307 29.7297 6.30943 29.7455 6.30549Z" fill="#263238"/>
<path d="M29.343 9.00821C31.0301 8.80531 32.7337 8.77758 34.4264 8.92546C34.5092 8.92546 34.4658 8.98457 34.3792 8.98457C32.6926 8.98457 31.3646 8.98457 29.3549 9.06338C29.3233 9.06732 29.3076 9.01215 29.343 9.00821Z" fill="#263238"/>
<path d="M34.1314 11.7866C35.0654 11.7157 37.4258 11.2153 36.7638 9.84787C36.1057 9.10309 35.026 8.95729 34.0999 8.79178V9.06368C35.2486 9.02891 36.3845 8.81211 37.4652 8.42136C37.8002 8.26768 38.2021 8.07459 38.3203 7.69629C38.1114 8.00952 37.7895 8.2298 37.4219 8.31102C36.3339 8.60397 35.2145 8.76407 34.0881 8.78784L32.7365 8.84301C33.8832 9.05974 35.29 9.15432 36.283 9.75723C36.3848 9.80606 36.4713 9.88181 36.5331 9.97628C36.5949 10.0707 36.6297 10.1803 36.6337 10.2932C36.6227 10.4115 36.5876 10.5263 36.5307 10.6307C36.4738 10.735 36.3962 10.8266 36.3027 10.9C35.651 11.3533 34.9066 11.6562 34.1236 11.7866H34.1314Z" fill="#263238"/>
</svg>
