<svg width="28" height="28" viewBox="0 0 28 28" fill="none" xmlns="http://www.w3.org/2000/svg">
<path d="M20.9579 16.4968C20.6579 16.7876 20.52 17.2081 20.5883 17.6206L21.6183 23.3206C21.7052 23.8037 21.5013 24.2926 21.0969 24.5719C20.7007 24.8615 20.1736 24.8963 19.7414 24.6645L14.6102 21.9883C14.4318 21.8933 14.2337 21.8423 14.031 21.8365H13.717C13.6081 21.8527 13.5015 21.8875 13.4042 21.9408L8.27182 24.6298C8.0181 24.7572 7.73078 24.8024 7.44925 24.7572C6.76339 24.6275 6.30576 23.974 6.41814 23.2847L7.44925 17.5847C7.5176 17.1687 7.37974 16.7459 7.07967 16.4504L2.89616 12.3955C2.54627 12.0561 2.42463 11.5463 2.58451 11.0864C2.73975 10.6276 3.13597 10.2927 3.61446 10.2174L9.37244 9.38213C9.81037 9.33695 10.195 9.07048 10.392 8.67657L12.9292 3.47469C12.9894 3.35884 13.0671 3.25225 13.1609 3.16188L13.2652 3.08079C13.3196 3.02054 13.3822 2.97072 13.4517 2.93017L13.578 2.88383L13.7749 2.80273H14.2627C14.6983 2.84792 15.0818 3.10859 15.2822 3.49786L17.853 8.67657C18.0384 9.05542 18.3987 9.31841 18.8146 9.38213L24.5726 10.2174C25.0592 10.287 25.4658 10.6229 25.6269 11.0864C25.7786 11.5509 25.6477 12.0607 25.2909 12.3955L20.9579 16.4968Z" fill="#F6882F"/>
</svg>
