<svg width="147" height="56" viewBox="0 0 147 56" fill="none" xmlns="http://www.w3.org/2000/svg">
<path d="M63.5525 18.4485H67.1918C68.2692 18.4485 69.0739 18.2033 69.6126 17.7099C70.148 17.2195 70.4206 16.5238 70.4206 15.6289C70.4206 14.7339 70.1513 14.0658 69.6126 13.5632C69.0739 13.0605 68.2692 12.8092 67.1918 12.8092H63.5525V18.4485ZM69.9739 30.8182L64.9616 22.3255H63.5525V30.8182H57.6797V8.32227H67.5367C69.4352 8.32227 71.0545 8.63182 72.3946 9.25091C73.7315 9.87001 74.7365 10.719 75.3967 11.7978C76.0635 12.8766 76.3953 14.078 76.3953 15.4021C76.3953 16.8977 75.942 18.234 75.0354 19.4078C74.1322 20.5816 72.7986 21.4153 71.0381 21.9087L76.6022 30.8152H69.9739V30.8182Z" fill="#012664"/>
<path d="M41.1619 18.4485H44.8012C45.8786 18.4485 46.6833 18.2033 47.222 17.7099C47.7573 17.2195 48.03 16.5238 48.03 15.6289C48.03 14.7339 47.7606 14.0658 47.222 13.5632C46.6833 13.0605 45.8786 12.8092 44.8012 12.8092H41.1619V18.4485ZM47.5833 30.8182L42.571 22.3255H41.1619V30.8182H35.2891V8.32227H45.1461C47.0446 8.32227 48.6639 8.63182 50.004 9.25091C51.3441 9.87001 52.3459 10.719 53.0094 11.7978C53.6762 12.8766 54.0079 14.078 54.0079 15.4021C54.0079 16.8977 53.5546 18.234 52.6481 19.4078C51.7448 20.5816 50.4113 21.4153 48.6508 21.9087L54.2148 30.8152H47.5865L47.5833 30.8182Z" fill="#012664"/>
<path d="M23.5114 22.678L20.4896 14.3784L17.5039 22.678H23.5114ZM24.9895 26.8431H15.9897L14.5478 30.8152H8.40234L17.1229 8.32227H23.922L32.6459 30.8152H26.4314L24.9895 26.8431Z" fill="#012664"/>
<path d="M85.951 8.32227H80.0781V30.8152H85.951V8.32227Z" fill="#012664"/>
<path d="M94.6334 8.32227L100.608 25.3046L106.583 8.32227H112.833L104.283 30.8152H96.9326L88.3828 8.32227H94.6334Z" fill="#012664"/>
<path d="M131.283 24.213C130.127 25.3899 128.593 25.9784 126.665 25.9784C124.737 25.9784 123.17 25.393 122.014 24.213C120.858 23.0392 120.28 21.4731 120.28 19.5054C120.28 17.5378 120.854 15.9717 122.014 14.7978C123.17 13.6209 124.72 13.0325 126.665 13.0325C128.609 13.0325 130.124 13.6179 131.283 14.7978C132.439 15.9717 133.021 17.5378 133.021 19.5054C133.021 21.4731 132.439 23.0392 131.283 24.213ZM137.363 13.575C136.276 11.8249 134.791 10.4549 132.899 9.47419C131.014 8.49344 128.934 8 126.668 8C124.402 8 122.329 8.49344 120.437 9.47419C118.545 10.4549 117.048 11.8249 115.937 13.575C114.827 15.328 114.275 17.3018 114.275 19.5054C114.275 21.7091 114.827 23.6859 115.937 25.4512C116.732 26.7078 117.718 27.7652 118.91 28.6203C119.091 28.5038 119.275 28.3843 119.455 28.2648C120.782 27.3882 122.191 27.1951 123.666 27.7008L124.146 27.8663L124.382 29.2149L124.264 29.4447C124.021 29.932 123.692 30.3274 123.331 30.6553C124.389 30.9128 125.505 31.0446 126.668 31.0446C128.934 31.0446 131.01 30.5511 132.889 29.5704C134.761 28.5835 136.249 27.2135 137.346 25.4543C138.443 23.6889 138.998 21.706 138.998 19.5085C138.998 17.311 138.453 15.3311 137.366 13.578" fill="#012664"/>
<path d="M31.6719 32.9601C32.4865 33.1409 33.3831 33.1808 34.0992 33.524C49.0473 40.6988 65.0005 43.6104 81.8932 42.2588C89.9043 41.6183 97.6427 39.8162 105.095 37.0884C105.555 36.9199 106.028 36.6195 106.478 36.644C107.03 36.6716 107.822 36.8494 108.029 37.1926C108.206 37.4869 107.868 38.3205 107.487 38.5442C105.26 39.8468 103.029 41.18 100.658 42.2466C78.4509 52.2502 50.8079 48.98 32.3255 34.2167C32.0956 34.0328 31.8919 33.8213 31.6784 33.6221C31.6784 33.4014 31.6784 33.1808 31.6752 32.957" fill="#FF850E"/>
<path d="M123.469 29.0896C123.199 29.6259 122.798 30.0335 122.345 30.3707C121.728 30.8365 121.005 31.192 120.365 31.6211C119.823 31.9889 119.53 32.3659 119.432 32.9911C119.162 34.6461 118.752 36.2858 118.529 37.9439C118.4 38.9032 117.822 39.3598 116.89 39.7246C116.771 37.8826 116.66 36.0866 116.541 34.1711C115.244 34.9771 113.986 35.5901 112.649 36.0743C111.631 36.4482 110.764 36.4482 109.923 35.7403C109.489 35.3664 108.984 35.0721 108.53 34.7166C108.353 34.5787 107.965 34.4653 108.107 34.214C108.235 33.9872 108.553 33.837 108.911 33.8952C109.604 34.0117 110.304 34.0699 110.984 34.214C111.5 34.3243 111.894 34.214 112.317 33.9351C114.761 32.323 117.228 30.7446 119.665 29.1294C119.764 29.062 119.865 28.9976 119.964 28.9332C121.035 28.2253 122.138 28.0506 123.36 28.4735C123.396 28.6819 123.432 28.8842 123.465 29.0926" fill="#FF850E"/>
<path d="M110.85 30.9925C112.515 29.3099 114.226 30.6676 115.937 30.7626C115.29 31.1917 114.64 31.6147 114 32.0529C113.835 32.1663 113.697 32.1388 113.536 32.0744C112.669 31.7219 111.802 31.3756 110.85 30.9925Z" fill="#FF850E"/>
</svg>
