<svg width="20" height="20" viewBox="0 0 20 20" fill="none" xmlns="http://www.w3.org/2000/svg">
<path d="M16.7973 4.17101C16.5283 3.4377 16.0397 2.80434 15.3976 2.35652C14.7555 1.9087 13.9909 1.66801 13.207 1.66699H6.79037C6.00652 1.66801 5.24189 1.9087 4.59981 2.35652C3.95772 2.80434 3.46914 3.4377 3.20009 4.17101L1.13759 9.82199C0.934739 10.3786 0.831325 10.9662 0.832035 11.5583V12.3192C0.833398 12.9072 0.972157 13.4868 1.23733 14.0121C1.5025 14.5375 1.8868 14.9941 2.35981 15.3459C2.35981 15.352 2.35981 15.3566 2.35981 15.3626V16.8844C2.35981 17.4898 2.60125 18.0704 3.03103 18.4984C3.4608 18.9265 4.04369 19.167 4.65148 19.167C5.25927 19.167 5.84216 18.9265 6.27193 18.4984C6.7017 18.0704 6.94314 17.4898 6.94314 16.8844V16.1235H13.0543V16.8844C13.0543 17.4898 13.2957 18.0704 13.7255 18.4984C14.1552 18.9265 14.7381 19.167 15.3459 19.167C15.9537 19.167 16.5366 18.9265 16.9664 18.4984C17.3961 18.0704 17.6376 17.4898 17.6376 16.8844V15.3626C17.6376 15.3566 17.6376 15.352 17.6376 15.3459C18.1106 14.9941 18.4949 14.5375 18.7601 14.0121C19.0252 13.4868 19.164 12.9072 19.1654 12.3192V11.5583C19.1661 10.9664 19.0627 10.379 18.8598 9.82275L16.7973 4.17101ZM4.63773 4.69145C4.79924 4.25179 5.09219 3.87203 5.4771 3.60333C5.862 3.33464 6.32035 3.18994 6.79037 3.18873H13.207C13.6773 3.18963 14.136 3.33419 14.5212 3.6029C14.9064 3.87161 15.1996 4.25155 15.3612 4.69145L17.0326 9.27569H2.96405L4.63773 4.69145ZM5.41537 16.8844C5.41537 17.0862 5.33489 17.2797 5.19163 17.4224C5.04837 17.5651 4.85407 17.6453 4.65148 17.6453C4.44888 17.6453 4.25458 17.5651 4.11133 17.4224C3.96807 17.2797 3.88759 17.0862 3.88759 16.8844V16.0474C4.13901 16.0983 4.39493 16.1238 4.65148 16.1235H5.41537V16.8844ZM16.1098 16.8844C16.1098 17.0862 16.0293 17.2797 15.8861 17.4224C15.7428 17.5651 15.5485 17.6453 15.3459 17.6453C15.1433 17.6453 14.949 17.5651 14.8058 17.4224C14.6625 17.2797 14.582 17.0862 14.582 16.8844V16.1235H15.3459C15.6025 16.1238 15.8584 16.0983 16.1098 16.0474V16.8844ZM17.6376 12.3192C17.6376 12.9246 17.3961 13.5051 16.9664 13.9332C16.5366 14.3613 15.9537 14.6018 15.3459 14.6018H4.65148C4.04369 14.6018 3.4608 14.3613 3.03103 13.9332C2.60125 13.5051 2.35981 12.9246 2.35981 12.3192V11.5583C2.36292 11.3021 2.39392 11.047 2.45224 10.7974H3.88759V11.5583C3.88759 11.7601 3.96807 11.9536 4.11133 12.0963C4.25458 12.239 4.44888 12.3192 4.65148 12.3192C4.85407 12.3192 5.04837 12.239 5.19163 12.0963C5.33489 11.9536 5.41537 11.7601 5.41537 11.5583V10.7974H14.582V11.5583C14.582 11.7601 14.6625 11.9536 14.8058 12.0963C14.949 12.239 15.1433 12.3192 15.3459 12.3192C15.5485 12.3192 15.7428 12.239 15.8861 12.0963C16.0293 11.9536 16.1098 11.7601 16.1098 11.5583V10.7974H17.5452C17.6035 11.047 17.6345 11.3021 17.6376 11.5583V12.3192Z" fill="#F6882F"/>
</svg>
